<?xml version="1.0" encoding="UTF-8" standalone="no"?>
<!-- Generator: Adobe Illustrator 17.1.0, SVG Export Plug-In . SVG Version: 6.00 Build 0)  -->

<svg
   xmlns:dc="http://purl.org/dc/elements/1.1/"
   xmlns:cc="http://creativecommons.org/ns#"
   xmlns:rdf="http://www.w3.org/1999/02/22-rdf-syntax-ns#"
   xmlns:svg="http://www.w3.org/2000/svg"
   xmlns="http://www.w3.org/2000/svg"
   xmlns:sodipodi="http://sodipodi.sourceforge.net/DTD/sodipodi-0.dtd"
   xmlns:inkscape="http://www.inkscape.org/namespaces/inkscape"
   version="1.1"
   id="Capa_1"
   x="0px"
   y="0px"
   viewBox="0 0 132.46901 206.667"
   xml:space="preserve"
   inkscape:version="0.48.5 r10040"
   width="100%"
   height="100%"
   sodipodi:docname="computermouse12.svg"><metadata
   id="metadata39"><rdf:RDF><cc:Work
       rdf:about=""><dc:format>image/svg+xml</dc:format><dc:type
         rdf:resource="http://purl.org/dc/dcmitype/StillImage" /><dc:title></dc:title></cc:Work></rdf:RDF></metadata><defs
   id="defs37"><clipPath
     clipPathUnits="userSpaceOnUse"
     id="clipPath3830"><path
       sodipodi:type="arc"
       style="fill:#c63f3f;fill-opacity:1;fill-rule:nonzero;stroke:none"
       id="path3832"
       sodipodi:cx="100.37798"
       sodipodi:cy="52.761383"
       sodipodi:rx="11.274735"
       sodipodi:ry="25.395521"
       d="m 111.65272,52.761383 a 11.274735,25.395521 0 1 1 -22.549472,0 11.274735,25.395521 0 1 1 22.549472,0 z"
       transform="translate(-1.0946345,-0.6567807)" /></clipPath></defs><sodipodi:namedview
   pagecolor="#ffffff"
   bordercolor="#666666"
   borderopacity="1"
   objecttolerance="10"
   gridtolerance="10"
   guidetolerance="10"
   inkscape:pageopacity="0"
   inkscape:pageshadow="2"
   inkscape:window-width="1366"
   inkscape:window-height="705"
   id="namedview35"
   showgrid="false"
   fit-margin-top="0"
   fit-margin-left="0"
   fit-margin-right="0"
   fit-margin-bottom="0"
   inkscape:zoom="1.1419336"
   inkscape:cx="92.378766"
   inkscape:cy="178.02009"
   inkscape:window-x="-8"
   inkscape:window-y="-8"
   inkscape:window-maximized="1"
   inkscape:current-layer="Capa_1" />

<g
   id="g5"
   transform="translate(-35.620999,-0.24138913)">
</g>
<g
   id="g7"
   transform="translate(-35.620999,-0.24138913)">
</g>
<g
   id="g9"
   transform="translate(-35.620999,-0.24138913)">
</g>
<g
   id="g11"
   transform="translate(-35.620999,-0.24138913)">
</g>
<g
   id="g13"
   transform="translate(-35.620999,-0.24138913)">
</g>
<g
   id="g15"
   transform="translate(-35.620999,-0.24138913)">
</g>
<g
   id="g17"
   transform="translate(-35.620999,-0.24138913)">
</g>
<g
   id="g19"
   transform="translate(-35.620999,-0.24138913)">
</g>
<g
   id="g21"
   transform="translate(-35.620999,-0.24138913)">
</g>
<g
   id="g23"
   transform="translate(-35.620999,-0.24138913)">
</g>
<g
   id="g25"
   transform="translate(-35.620999,-0.24138913)">
</g>
<g
   id="g27"
   transform="translate(-35.620999,-0.24138913)">
</g>
<g
   id="g29"
   transform="translate(-35.620999,-0.24138913)">
</g>
<g
   id="g31"
   transform="translate(-35.620999,-0.24138913)">
</g>
<g
   id="g33"
   transform="translate(-35.620999,-0.24138913)">
</g>
<path
   d="m 132.469,94.109994 v 52.142996 c 0,33.312 -27.102,60.414 -60.413999,60.414 H 60.414002 C 27.101003,206.66699 0,179.56499 0,146.25299 V 94.109994 H 132.469 z M 48.006002,58.374998 V 34.869999 c 0,-8.316 5.604,-15.334 13.229,-17.515 V 0 h -0.82 C 27.101003,0 0,27.101999 0,60.413998 v 23.695999 h 61.234002 v -8.22 c -7.625,-2.181 -13.228,-9.198999 -13.228,-17.514999 z m 26.456999,0 V 34.869999 c 0,-4.538 -3.691,-8.229 -8.229,-8.229 -4.537999,0 -8.228999,3.691 -8.228999,8.229 v 23.505999 c 0,4.537 3.691,8.229 8.228999,8.229 4.538,0 8.229,-3.692 8.229,-8.23 z M 72.055001,0 h -0.82 v 17.354999 c 7.625,2.181 13.229,9.199 13.229,17.515 v 23.505999 c 0,8.316 -5.604,15.333999 -13.229,17.513999 v 8.22 H 132.469 V 60.413998 C 132.469,27.101999 105.367,0 72.055001,0 z"
   id="path3-1"
   inkscape:connector-curvature="0" /><path
   d="m 164.75161,97.612827 v 52.143003 c 0,33.312 -27.102,60.414 -60.414,60.414 H 92.696609 c -33.313,0 -60.414,-27.102 -60.414,-60.414 V 97.612827 H 164.75161 z M 80.288609,61.87783 v -23.505 c 0,-8.316 5.604,-15.334 13.229,-17.515 V 3.5028304 h -0.82 c -33.314,0 -60.415,27.1019996 -60.415,60.4139996 v 23.696 h 61.234 v -8.22 c -7.625,-2.181 -13.228,-9.199 -13.228,-17.515 z m 26.457001,0 v -23.505 c 0,-4.538 -3.691,-8.229 -8.229001,-8.229 -4.538,0 -8.229,3.691 -8.229,8.229 v 23.506 c 0,4.537 3.691,8.229 8.229,8.229 4.538001,0 8.229001,-3.692 8.229001,-8.23 z m -2.408,-58.3749996 h -0.82 V 20.85783 c 7.625,2.181 13.229,9.199 13.229,17.515 v 23.506 c 0,8.316 -5.604,15.334 -13.229,17.514 v 8.22 h 61.234 v -23.696 c 0,-33.312 -27.102,-60.4139996 -60.414,-60.4139996 z"
   id="path3"
   inkscape:connector-curvature="0"
   clip-path="url(#clipPath3830)"
   transform="translate(-32.343545,-3.5188476)"
   style="fill:#0197fd" /></svg>